<?xml version="1.0" encoding="UTF-8" standalone="no"?>
<!DOCTYPE svg PUBLIC "-//W3C//DTD SVG 1.1//EN"
 "http://www.w3.org/Graphics/SVG/1.1/DTD/svg11.dtd">
<!-- Generated by graphviz version 7.1.0 (0)
 -->
<!-- Title: G Pages: 1 -->
<svg width="1409pt" height="476pt"
 viewBox="0.00 0.00 1409.02 476.00" xmlns="http://www.w3.org/2000/svg" xmlns:xlink="http://www.w3.org/1999/xlink">
<g id="graph0" class="graph" transform="scale(1 1) rotate(0) translate(4 472)">
<title>G</title>
<polygon fill="white" stroke="none" points="-4,4 -4,-472 1405.02,-472 1405.02,4 -4,4"/>
<!-- literal 6 (rdi) -->
<g id="node1" class="node">
<title>literal 6 (rdi)</title>
<ellipse fill="#19a516" stroke="black" cx="120.18" cy="-450" rx="70.39" ry="18"/>
<text text-anchor="middle" x="120.18" y="-446.3" font-family="Times,serif" font-size="14.00" fill="white">literal 6 (rdi)</text>
</g>
<!-- add [literal 6, literal 7] (rsi) -->
<g id="node2" class="node">
<title>add [literal 6, literal 7] (rsi)</title>
<ellipse fill="#f64b49" stroke="black" cx="200.18" cy="-378" rx="138.38" ry="18"/>
<text text-anchor="middle" x="200.18" y="-374.3" font-family="Times,serif" font-size="14.00" fill="white">add [literal 6, literal 7] (rsi)</text>
</g>
<!-- literal 6 (rdi)&#45;&gt;add [literal 6, literal 7] (rsi) -->
<g id="edge1" class="edge">
<title>literal 6 (rdi)&#45;&gt;add [literal 6, literal 7] (rsi)</title>
<path fill="none" stroke="black" d="M139.14,-432.41C148.99,-423.8 161.21,-413.1 172.12,-403.55"/>
<polygon fill="black" stroke="black" points="174.16,-406.42 179.38,-397.2 169.55,-401.15 174.16,-406.42"/>
</g>
<!-- assign a = [add [literal 6, literal 7]] (rax) -->
<g id="node3" class="node">
<title>assign a = [add [literal 6, literal 7]] (rax)</title>
<ellipse fill="#315bb6" stroke="black" cx="200.18" cy="-306" rx="200.36" ry="18"/>
<text text-anchor="middle" x="200.18" y="-302.3" font-family="Times,serif" font-size="14.00" fill="white">assign a = [add [literal 6, literal 7]] (rax)</text>
</g>
<!-- add [literal 6, literal 7] (rsi)&#45;&gt;assign a = [add [literal 6, literal 7]] (rax) -->
<g id="edge2" class="edge">
<title>add [literal 6, literal 7] (rsi)&#45;&gt;assign a = [add [literal 6, literal 7]] (rax)</title>
<path fill="none" stroke="black" d="M200.18,-359.7C200.18,-352.41 200.18,-343.73 200.18,-335.54"/>
<polygon fill="black" stroke="black" points="203.68,-335.62 200.18,-325.62 196.68,-335.62 203.68,-335.62"/>
</g>
<!-- ref a (rdx) -->
<g id="node5" class="node">
<title>ref a (rdx)</title>
<ellipse fill="#8087a2" stroke="black" cx="256.18" cy="-234" rx="57.69" ry="18"/>
<text text-anchor="middle" x="256.18" y="-230.3" font-family="Times,serif" font-size="14.00" fill="white">ref a (rdx)</text>
</g>
<!-- assign a = [add [literal 6, literal 7]] (rax)&#45;&gt;ref a (rdx) -->
<g id="edge4" class="edge">
<title>assign a = [add [literal 6, literal 7]] (rax)&#45;&gt;ref a (rdx)</title>
<path fill="none" stroke="black" d="M214.02,-287.7C220.56,-279.52 228.5,-269.6 235.72,-260.58"/>
<polygon fill="black" stroke="black" points="238.42,-262.8 241.94,-252.8 232.96,-258.43 238.42,-262.8"/>
</g>
<!-- literal 7 (rax) -->
<g id="node4" class="node">
<title>literal 7 (rax)</title>
<ellipse fill="#315bb6" stroke="black" cx="280.18" cy="-450" rx="72.29" ry="18"/>
<text text-anchor="middle" x="280.18" y="-446.3" font-family="Times,serif" font-size="14.00" fill="white">literal 7 (rax)</text>
</g>
<!-- literal 7 (rax)&#45;&gt;add [literal 6, literal 7] (rsi) -->
<g id="edge3" class="edge">
<title>literal 7 (rax)&#45;&gt;add [literal 6, literal 7] (rsi)</title>
<path fill="none" stroke="black" d="M261.22,-432.41C251.38,-423.8 239.16,-413.1 228.24,-403.55"/>
<polygon fill="black" stroke="black" points="230.81,-401.15 220.98,-397.2 226.2,-406.42 230.81,-401.15"/>
</g>
<!-- add [ref b, ref a] (rcx) -->
<g id="node12" class="node">
<title>add [ref b, ref a] (rcx)</title>
<ellipse fill="#ea3d9e" stroke="black" cx="351.18" cy="-162" rx="111.28" ry="18"/>
<text text-anchor="middle" x="351.18" y="-158.3" font-family="Times,serif" font-size="14.00" fill="white">add [ref b, ref a] (rcx)</text>
</g>
<!-- ref a (rdx)&#45;&gt;add [ref b, ref a] (rcx) -->
<g id="edge9" class="edge">
<title>ref a (rdx)&#45;&gt;add [ref b, ref a] (rcx)</title>
<path fill="none" stroke="black" d="M277.74,-217.12C289.93,-208.14 305.4,-196.73 319,-186.71"/>
<polygon fill="black" stroke="black" points="320.86,-189.69 326.83,-180.94 316.71,-184.06 320.86,-189.69"/>
</g>
<!-- literal 10 (rdx) -->
<g id="node6" class="node">
<title>literal 10 (rdx)</title>
<ellipse fill="#8087a2" stroke="black" cx="555.18" cy="-378" rx="78.79" ry="18"/>
<text text-anchor="middle" x="555.18" y="-374.3" font-family="Times,serif" font-size="14.00" fill="white">literal 10 (rdx)</text>
</g>
<!-- assign b = [literal 10] (rcx) -->
<g id="node7" class="node">
<title>assign b = [literal 10] (rcx)</title>
<ellipse fill="#ea3d9e" stroke="black" cx="555.18" cy="-306" rx="136.48" ry="18"/>
<text text-anchor="middle" x="555.18" y="-302.3" font-family="Times,serif" font-size="14.00" fill="white">assign b = [literal 10] (rcx)</text>
</g>
<!-- literal 10 (rdx)&#45;&gt;assign b = [literal 10] (rcx) -->
<g id="edge5" class="edge">
<title>literal 10 (rdx)&#45;&gt;assign b = [literal 10] (rcx)</title>
<path fill="none" stroke="black" d="M555.18,-359.7C555.18,-352.41 555.18,-343.73 555.18,-335.54"/>
<polygon fill="black" stroke="black" points="558.68,-335.62 555.18,-325.62 551.68,-335.62 558.68,-335.62"/>
</g>
<!-- ref b (rax) -->
<g id="node8" class="node">
<title>ref b (rax)</title>
<ellipse fill="#315bb6" stroke="black" cx="445.18" cy="-234" rx="57.69" ry="18"/>
<text text-anchor="middle" x="445.18" y="-230.3" font-family="Times,serif" font-size="14.00" fill="white">ref b (rax)</text>
</g>
<!-- assign b = [literal 10] (rcx)&#45;&gt;ref b (rax) -->
<g id="edge6" class="edge">
<title>assign b = [literal 10] (rcx)&#45;&gt;ref b (rax)</title>
<path fill="none" stroke="black" d="M528.27,-287.88C513.42,-278.42 494.83,-266.59 479,-256.52"/>
<polygon fill="black" stroke="black" points="481.15,-253.74 470.84,-251.33 477.4,-259.65 481.15,-253.74"/>
</g>
<!-- ref b (rax)&#45;&gt;add [ref b, ref a] (rcx) -->
<g id="edge10" class="edge">
<title>ref b (rax)&#45;&gt;add [ref b, ref a] (rcx)</title>
<path fill="none" stroke="black" d="M423.85,-217.12C411.79,-208.14 396.48,-196.73 383.03,-186.71"/>
<polygon fill="black" stroke="black" points="385.39,-184.11 375.28,-180.95 381.21,-189.73 385.39,-184.11"/>
</g>
<!-- literal 9 (r10) -->
<g id="node9" class="node">
<title>literal 9 (r10)</title>
<ellipse fill="#04ba72" stroke="black" cx="740.18" cy="-450" rx="73.39" ry="18"/>
<text text-anchor="middle" x="740.18" y="-446.3" font-family="Times,serif" font-size="14.00" fill="white">literal 9 (r10)</text>
</g>
<!-- assign g = [literal 8, literal 9] (rdi) -->
<g id="node10" class="node">
<title>assign g = [literal 8, literal 9] (rdi)</title>
<ellipse fill="#19a516" stroke="black" cx="823.18" cy="-378" rx="171.67" ry="18"/>
<text text-anchor="middle" x="823.18" y="-374.3" font-family="Times,serif" font-size="14.00" fill="white">assign g = [literal 8, literal 9] (rdi)</text>
</g>
<!-- literal 9 (r10)&#45;&gt;assign g = [literal 8, literal 9] (rdi) -->
<g id="edge7" class="edge">
<title>literal 9 (r10)&#45;&gt;assign g = [literal 8, literal 9] (rdi)</title>
<path fill="none" stroke="black" d="M759.85,-432.41C770.07,-423.8 782.74,-413.1 794.07,-403.55"/>
<polygon fill="black" stroke="black" points="796.24,-406.3 801.63,-397.18 791.73,-400.95 796.24,-406.3"/>
</g>
<!-- literal 8 (rsi) -->
<g id="node11" class="node">
<title>literal 8 (rsi)</title>
<ellipse fill="#f64b49" stroke="black" cx="901.18" cy="-450" rx="69.59" ry="18"/>
<text text-anchor="middle" x="901.18" y="-446.3" font-family="Times,serif" font-size="14.00" fill="white">literal 8 (rsi)</text>
</g>
<!-- literal 8 (rsi)&#45;&gt;assign g = [literal 8, literal 9] (rdi) -->
<g id="edge8" class="edge">
<title>literal 8 (rsi)&#45;&gt;assign g = [literal 8, literal 9] (rdi)</title>
<path fill="none" stroke="black" d="M882.7,-432.41C873.19,-423.88 861.42,-413.32 850.86,-403.84"/>
<polygon fill="black" stroke="black" points="853.26,-401.29 843.48,-397.21 848.58,-406.5 853.26,-401.29"/>
</g>
<!-- assign m = [add [ref b, ref a]] (rdi) -->
<g id="node13" class="node">
<title>assign m = [add [ref b, ref a]] (rdi)</title>
<ellipse fill="#19a516" stroke="black" cx="351.18" cy="-90" rx="171.67" ry="18"/>
<text text-anchor="middle" x="351.18" y="-86.3" font-family="Times,serif" font-size="14.00" fill="white">assign m = [add [ref b, ref a]] (rdi)</text>
</g>
<!-- add [ref b, ref a] (rcx)&#45;&gt;assign m = [add [ref b, ref a]] (rdi) -->
<g id="edge11" class="edge">
<title>add [ref b, ref a] (rcx)&#45;&gt;assign m = [add [ref b, ref a]] (rdi)</title>
<path fill="none" stroke="black" d="M351.18,-143.7C351.18,-136.41 351.18,-127.73 351.18,-119.54"/>
<polygon fill="black" stroke="black" points="354.68,-119.62 351.18,-109.62 347.68,-119.62 354.68,-119.62"/>
</g>
<!-- literal 3 (r10) -->
<g id="node14" class="node">
<title>literal 3 (r10)</title>
<ellipse fill="#04ba72" stroke="black" cx="1141.18" cy="-450" rx="73.39" ry="18"/>
<text text-anchor="middle" x="1141.18" y="-446.3" font-family="Times,serif" font-size="14.00" fill="white">literal 3 (r10)</text>
</g>
<!-- assign k = [literal 3] (rdi) -->
<g id="node15" class="node">
<title>assign k = [literal 3] (rdi)</title>
<ellipse fill="#19a516" stroke="black" cx="1141.18" cy="-378" rx="128.88" ry="18"/>
<text text-anchor="middle" x="1141.18" y="-374.3" font-family="Times,serif" font-size="14.00" fill="white">assign k = [literal 3] (rdi)</text>
</g>
<!-- literal 3 (r10)&#45;&gt;assign k = [literal 3] (rdi) -->
<g id="edge12" class="edge">
<title>literal 3 (r10)&#45;&gt;assign k = [literal 3] (rdi)</title>
<path fill="none" stroke="black" d="M1141.18,-431.7C1141.18,-424.41 1141.18,-415.73 1141.18,-407.54"/>
<polygon fill="black" stroke="black" points="1144.68,-407.62 1141.18,-397.62 1137.68,-407.62 1144.68,-407.62"/>
</g>
<!-- ref k (rsi) -->
<g id="node16" class="node">
<title>ref k (rsi)</title>
<ellipse fill="#f64b49" stroke="black" cx="1141.18" cy="-306" rx="53.89" ry="18"/>
<text text-anchor="middle" x="1141.18" y="-302.3" font-family="Times,serif" font-size="14.00" fill="white">ref k (rsi)</text>
</g>
<!-- assign k = [literal 3] (rdi)&#45;&gt;ref k (rsi) -->
<g id="edge13" class="edge">
<title>assign k = [literal 3] (rdi)&#45;&gt;ref k (rsi)</title>
<path fill="none" stroke="black" d="M1141.18,-359.7C1141.18,-352.41 1141.18,-343.73 1141.18,-335.54"/>
<polygon fill="black" stroke="black" points="1144.68,-335.62 1141.18,-325.62 1137.68,-335.62 1144.68,-335.62"/>
</g>
<!-- add [literal 1, ref k] (rax) -->
<g id="node17" class="node">
<title>add [literal 1, ref k] (rax)</title>
<ellipse fill="#315bb6" stroke="black" cx="1213.18" cy="-234" rx="126.18" ry="18"/>
<text text-anchor="middle" x="1213.18" y="-230.3" font-family="Times,serif" font-size="14.00" fill="white">add [literal 1, ref k] (rax)</text>
</g>
<!-- ref k (rsi)&#45;&gt;add [literal 1, ref k] (rax) -->
<g id="edge14" class="edge">
<title>ref k (rsi)&#45;&gt;add [literal 1, ref k] (rax)</title>
<path fill="none" stroke="black" d="M1157.88,-288.76C1166.62,-280.27 1177.51,-269.68 1187.32,-260.15"/>
<polygon fill="black" stroke="black" points="1189.75,-262.66 1194.48,-253.18 1184.87,-257.64 1189.75,-262.66"/>
</g>
<!-- assign m = [add [literal 1, ref k]] (rcx) -->
<g id="node18" class="node">
<title>assign m = [add [literal 1, ref k]] (rcx)</title>
<ellipse fill="#ea3d9e" stroke="black" cx="1213.18" cy="-162" rx="187.67" ry="18"/>
<text text-anchor="middle" x="1213.18" y="-158.3" font-family="Times,serif" font-size="14.00" fill="white">assign m = [add [literal 1, ref k]] (rcx)</text>
</g>
<!-- add [literal 1, ref k] (rax)&#45;&gt;assign m = [add [literal 1, ref k]] (rcx) -->
<g id="edge15" class="edge">
<title>add [literal 1, ref k] (rax)&#45;&gt;assign m = [add [literal 1, ref k]] (rcx)</title>
<path fill="none" stroke="black" d="M1213.18,-215.7C1213.18,-208.41 1213.18,-199.73 1213.18,-191.54"/>
<polygon fill="black" stroke="black" points="1216.68,-191.62 1213.18,-181.62 1209.68,-191.62 1216.68,-191.62"/>
</g>
<!-- ref m (r10) -->
<g id="node20" class="node">
<title>ref m (r10)</title>
<ellipse fill="#04ba72" stroke="black" cx="1213.18" cy="-90" rx="61.99" ry="18"/>
<text text-anchor="middle" x="1213.18" y="-86.3" font-family="Times,serif" font-size="14.00" fill="white">ref m (r10)</text>
</g>
<!-- assign m = [add [literal 1, ref k]] (rcx)&#45;&gt;ref m (r10) -->
<g id="edge17" class="edge">
<title>assign m = [add [literal 1, ref k]] (rcx)&#45;&gt;ref m (r10)</title>
<path fill="none" stroke="black" d="M1213.18,-143.7C1213.18,-136.41 1213.18,-127.73 1213.18,-119.54"/>
<polygon fill="black" stroke="black" points="1216.68,-119.62 1213.18,-109.62 1209.68,-119.62 1216.68,-119.62"/>
</g>
<!-- literal 1 (rdx) -->
<g id="node19" class="node">
<title>literal 1 (rdx)</title>
<ellipse fill="#8087a2" stroke="black" cx="1286.18" cy="-306" rx="72.59" ry="18"/>
<text text-anchor="middle" x="1286.18" y="-302.3" font-family="Times,serif" font-size="14.00" fill="white">literal 1 (rdx)</text>
</g>
<!-- literal 1 (rdx)&#45;&gt;add [literal 1, ref k] (rax) -->
<g id="edge16" class="edge">
<title>literal 1 (rdx)&#45;&gt;add [literal 1, ref k] (rax)</title>
<path fill="none" stroke="black" d="M1268.51,-288.05C1259.76,-279.67 1249.03,-269.38 1239.35,-260.1"/>
<polygon fill="black" stroke="black" points="1241.93,-257.72 1232.29,-253.32 1237.09,-262.77 1241.93,-257.72"/>
</g>
<!-- print [ref m] (rdi) -->
<g id="node21" class="node">
<title>print [ref m] (rdi)</title>
<ellipse fill="#19a516" stroke="black" cx="1213.18" cy="-18" rx="90.98" ry="18"/>
<text text-anchor="middle" x="1213.18" y="-14.3" font-family="Times,serif" font-size="14.00" fill="white">print [ref m] (rdi)</text>
</g>
<!-- ref m (r10)&#45;&gt;print [ref m] (rdi) -->
<g id="edge18" class="edge">
<title>ref m (r10)&#45;&gt;print [ref m] (rdi)</title>
<path fill="none" stroke="black" d="M1213.18,-71.7C1213.18,-64.41 1213.18,-55.73 1213.18,-47.54"/>
<polygon fill="black" stroke="black" points="1216.68,-47.62 1213.18,-37.62 1209.68,-47.62 1216.68,-47.62"/>
</g>
</g>
</svg>
