<?xml version="1.0" encoding="UTF-8" standalone="no"?>
<!DOCTYPE svg PUBLIC "-//W3C//DTD SVG 1.1//EN"
 "http://www.w3.org/Graphics/SVG/1.1/DTD/svg11.dtd">
<!-- Generated by graphviz version 7.1.0 (0)
 -->
<!-- Title: G Pages: 1 -->
<svg width="1358pt" height="548pt"
 viewBox="0.00 0.00 1358.33 548.00" xmlns="http://www.w3.org/2000/svg" xmlns:xlink="http://www.w3.org/1999/xlink">
<g id="graph0" class="graph" transform="scale(1 1) rotate(0) translate(4 544)">
<title>G</title>
<polygon fill="white" stroke="none" points="-4,4 -4,-544 1354.33,-544 1354.33,4 -4,4"/>
<!-- literal 6 (rdi) -->
<g id="node1" class="node">
<title>literal 6 (rdi)</title>
<ellipse fill="#19a516" stroke="black" cx="120.18" cy="-522" rx="70.39" ry="18"/>
<text text-anchor="middle" x="120.18" y="-518.3" font-family="Times,serif" font-size="14.00" fill="white">literal 6 (rdi)</text>
</g>
<!-- add [literal 7, literal 6] (rsi) -->
<g id="node2" class="node">
<title>add [literal 7, literal 6] (rsi)</title>
<ellipse fill="#f64b49" stroke="black" cx="200.18" cy="-450" rx="138.38" ry="18"/>
<text text-anchor="middle" x="200.18" y="-446.3" font-family="Times,serif" font-size="14.00" fill="white">add [literal 7, literal 6] (rsi)</text>
</g>
<!-- literal 6 (rdi)&#45;&gt;add [literal 7, literal 6] (rsi) -->
<g id="edge1" class="edge">
<title>literal 6 (rdi)&#45;&gt;add [literal 7, literal 6] (rsi)</title>
<path fill="none" stroke="black" d="M139.14,-504.41C148.99,-495.8 161.21,-485.1 172.12,-475.55"/>
<polygon fill="black" stroke="black" points="174.16,-478.42 179.38,-469.2 169.55,-473.15 174.16,-478.42"/>
</g>
<!-- assign a = [add [literal 7, literal 6]] (rax) -->
<g id="node3" class="node">
<title>assign a = [add [literal 7, literal 6]] (rax)</title>
<ellipse fill="#315bb6" stroke="black" cx="200.18" cy="-378" rx="200.36" ry="18"/>
<text text-anchor="middle" x="200.18" y="-374.3" font-family="Times,serif" font-size="14.00" fill="white">assign a = [add [literal 7, literal 6]] (rax)</text>
</g>
<!-- add [literal 7, literal 6] (rsi)&#45;&gt;assign a = [add [literal 7, literal 6]] (rax) -->
<g id="edge2" class="edge">
<title>add [literal 7, literal 6] (rsi)&#45;&gt;assign a = [add [literal 7, literal 6]] (rax)</title>
<path fill="none" stroke="black" d="M200.18,-431.7C200.18,-424.41 200.18,-415.73 200.18,-407.54"/>
<polygon fill="black" stroke="black" points="203.68,-407.62 200.18,-397.62 196.68,-407.62 203.68,-407.62"/>
</g>
<!-- ref a (rdx) -->
<g id="node5" class="node">
<title>ref a (rdx)</title>
<ellipse fill="#8087a2" stroke="black" cx="310.18" cy="-306" rx="57.69" ry="18"/>
<text text-anchor="middle" x="310.18" y="-302.3" font-family="Times,serif" font-size="14.00" fill="white">ref a (rdx)</text>
</g>
<!-- assign a = [add [literal 7, literal 6]] (rax)&#45;&gt;ref a (rdx) -->
<g id="edge4" class="edge">
<title>assign a = [add [literal 7, literal 6]] (rax)&#45;&gt;ref a (rdx)</title>
<path fill="none" stroke="black" d="M227.37,-359.7C242.13,-350.31 260.5,-338.62 276.19,-328.63"/>
<polygon fill="black" stroke="black" points="277.72,-331.81 284.28,-323.48 273.96,-325.9 277.72,-331.81"/>
</g>
<!-- literal 7 (rax) -->
<g id="node4" class="node">
<title>literal 7 (rax)</title>
<ellipse fill="#315bb6" stroke="black" cx="280.18" cy="-522" rx="72.29" ry="18"/>
<text text-anchor="middle" x="280.18" y="-518.3" font-family="Times,serif" font-size="14.00" fill="white">literal 7 (rax)</text>
</g>
<!-- literal 7 (rax)&#45;&gt;add [literal 7, literal 6] (rsi) -->
<g id="edge3" class="edge">
<title>literal 7 (rax)&#45;&gt;add [literal 7, literal 6] (rsi)</title>
<path fill="none" stroke="black" d="M261.22,-504.41C251.38,-495.8 239.16,-485.1 228.24,-475.55"/>
<polygon fill="black" stroke="black" points="230.81,-473.15 220.98,-469.2 226.2,-478.42 230.81,-473.15"/>
</g>
<!-- add [ref a, ref b] (rcx) -->
<g id="node12" class="node">
<title>add [ref a, ref b] (rcx)</title>
<ellipse fill="#ea3d9e" stroke="black" cx="377.18" cy="-234" rx="111.28" ry="18"/>
<text text-anchor="middle" x="377.18" y="-230.3" font-family="Times,serif" font-size="14.00" fill="white">add [ref a, ref b] (rcx)</text>
</g>
<!-- ref a (rdx)&#45;&gt;add [ref a, ref b] (rcx) -->
<g id="edge9" class="edge">
<title>ref a (rdx)&#45;&gt;add [ref a, ref b] (rcx)</title>
<path fill="none" stroke="black" d="M326.06,-288.41C334.12,-279.99 344.08,-269.58 353.06,-260.2"/>
<polygon fill="black" stroke="black" points="355.52,-262.69 359.91,-253.05 350.46,-257.85 355.52,-262.69"/>
</g>
<!-- literal 10 (rdx) -->
<g id="node6" class="node">
<title>literal 10 (rdx)</title>
<ellipse fill="#8087a2" stroke="black" cx="555.18" cy="-450" rx="78.79" ry="18"/>
<text text-anchor="middle" x="555.18" y="-446.3" font-family="Times,serif" font-size="14.00" fill="white">literal 10 (rdx)</text>
</g>
<!-- assign b = [literal 10] (rcx) -->
<g id="node7" class="node">
<title>assign b = [literal 10] (rcx)</title>
<ellipse fill="#ea3d9e" stroke="black" cx="555.18" cy="-378" rx="136.48" ry="18"/>
<text text-anchor="middle" x="555.18" y="-374.3" font-family="Times,serif" font-size="14.00" fill="white">assign b = [literal 10] (rcx)</text>
</g>
<!-- literal 10 (rdx)&#45;&gt;assign b = [literal 10] (rcx) -->
<g id="edge5" class="edge">
<title>literal 10 (rdx)&#45;&gt;assign b = [literal 10] (rcx)</title>
<path fill="none" stroke="black" d="M555.18,-431.7C555.18,-424.41 555.18,-415.73 555.18,-407.54"/>
<polygon fill="black" stroke="black" points="558.68,-407.62 555.18,-397.62 551.68,-407.62 558.68,-407.62"/>
</g>
<!-- ref b (rax) -->
<g id="node8" class="node">
<title>ref b (rax)</title>
<ellipse fill="#315bb6" stroke="black" cx="499.18" cy="-306" rx="57.69" ry="18"/>
<text text-anchor="middle" x="499.18" y="-302.3" font-family="Times,serif" font-size="14.00" fill="white">ref b (rax)</text>
</g>
<!-- assign b = [literal 10] (rcx)&#45;&gt;ref b (rax) -->
<g id="edge6" class="edge">
<title>assign b = [literal 10] (rcx)&#45;&gt;ref b (rax)</title>
<path fill="none" stroke="black" d="M541.34,-359.7C534.8,-351.52 526.86,-341.6 519.65,-332.58"/>
<polygon fill="black" stroke="black" points="522.41,-330.43 513.43,-324.8 516.94,-334.8 522.41,-330.43"/>
</g>
<!-- ref b (rax)&#45;&gt;add [ref a, ref b] (rcx) -->
<g id="edge10" class="edge">
<title>ref b (rax)&#45;&gt;add [ref a, ref b] (rcx)</title>
<path fill="none" stroke="black" d="M472.41,-289.64C455.96,-280.2 434.59,-267.94 416.27,-257.43"/>
<polygon fill="black" stroke="black" points="418.18,-254.49 407.77,-252.55 414.7,-260.56 418.18,-254.49"/>
</g>
<!-- literal 9 (r10) -->
<g id="node9" class="node">
<title>literal 9 (r10)</title>
<ellipse fill="#04ba72" stroke="black" cx="689.18" cy="-522" rx="73.39" ry="18"/>
<text text-anchor="middle" x="689.18" y="-518.3" font-family="Times,serif" font-size="14.00" fill="white">literal 9 (r10)</text>
</g>
<!-- assign g = [literal 8, literal 9] (rdi) -->
<g id="node10" class="node">
<title>assign g = [literal 8, literal 9] (rdi)</title>
<ellipse fill="#19a516" stroke="black" cx="823.18" cy="-450" rx="171.67" ry="18"/>
<text text-anchor="middle" x="823.18" y="-446.3" font-family="Times,serif" font-size="14.00" fill="white">assign g = [literal 8, literal 9] (rdi)</text>
</g>
<!-- literal 9 (r10)&#45;&gt;assign g = [literal 8, literal 9] (rdi) -->
<g id="edge7" class="edge">
<title>literal 9 (r10)&#45;&gt;assign g = [literal 8, literal 9] (rdi)</title>
<path fill="none" stroke="black" d="M719.25,-505.29C737.26,-495.89 760.44,-483.78 780.33,-473.38"/>
<polygon fill="black" stroke="black" points="781.81,-476.56 789.05,-468.83 778.57,-470.36 781.81,-476.56"/>
</g>
<!-- literal 8 (rsi) -->
<g id="node11" class="node">
<title>literal 8 (rsi)</title>
<ellipse fill="#f64b49" stroke="black" cx="850.18" cy="-522" rx="69.59" ry="18"/>
<text text-anchor="middle" x="850.18" y="-518.3" font-family="Times,serif" font-size="14.00" fill="white">literal 8 (rsi)</text>
</g>
<!-- literal 8 (rsi)&#45;&gt;assign g = [literal 8, literal 9] (rdi) -->
<g id="edge8" class="edge">
<title>literal 8 (rsi)&#45;&gt;assign g = [literal 8, literal 9] (rdi)</title>
<path fill="none" stroke="black" d="M843.51,-503.7C840.6,-496.15 837.11,-487.12 833.86,-478.68"/>
<polygon fill="black" stroke="black" points="837.19,-477.59 830.32,-469.52 830.66,-480.11 837.19,-477.59"/>
</g>
<!-- assign m = [add [ref a, ref b]] (rdi) -->
<g id="node13" class="node">
<title>assign m = [add [ref a, ref b]] (rdi)</title>
<ellipse fill="#19a516" stroke="black" cx="377.18" cy="-162" rx="171.67" ry="18"/>
<text text-anchor="middle" x="377.18" y="-158.3" font-family="Times,serif" font-size="14.00" fill="white">assign m = [add [ref a, ref b]] (rdi)</text>
</g>
<!-- add [ref a, ref b] (rcx)&#45;&gt;assign m = [add [ref a, ref b]] (rdi) -->
<g id="edge11" class="edge">
<title>add [ref a, ref b] (rcx)&#45;&gt;assign m = [add [ref a, ref b]] (rdi)</title>
<path fill="none" stroke="black" d="M377.18,-215.7C377.18,-208.41 377.18,-199.73 377.18,-191.54"/>
<polygon fill="black" stroke="black" points="380.68,-191.62 377.18,-181.62 373.68,-191.62 380.68,-191.62"/>
</g>
<!-- ref m (rdx) -->
<g id="node14" class="node">
<title>ref m (rdx)</title>
<ellipse fill="#8087a2" stroke="black" cx="377.18" cy="-90" rx="61.19" ry="18"/>
<text text-anchor="middle" x="377.18" y="-86.3" font-family="Times,serif" font-size="14.00" fill="white">ref m (rdx)</text>
</g>
<!-- assign m = [add [ref a, ref b]] (rdi)&#45;&gt;ref m (rdx) -->
<g id="edge12" class="edge">
<title>assign m = [add [ref a, ref b]] (rdi)&#45;&gt;ref m (rdx)</title>
<path fill="none" stroke="black" d="M377.18,-143.7C377.18,-136.41 377.18,-127.73 377.18,-119.54"/>
<polygon fill="black" stroke="black" points="380.68,-119.62 377.18,-109.62 373.68,-119.62 380.68,-119.62"/>
</g>
<!-- print [ref m] (rcx) -->
<g id="node19" class="node">
<title>print [ref m] (rcx)</title>
<ellipse fill="#ea3d9e" stroke="black" cx="377.18" cy="-18" rx="92.88" ry="18"/>
<text text-anchor="middle" x="377.18" y="-14.3" font-family="Times,serif" font-size="14.00" fill="white">print [ref m] (rcx)</text>
</g>
<!-- ref m (rdx)&#45;&gt;print [ref m] (rcx) -->
<g id="edge17" class="edge">
<title>ref m (rdx)&#45;&gt;print [ref m] (rcx)</title>
<path fill="none" stroke="black" d="M377.18,-71.7C377.18,-64.41 377.18,-55.73 377.18,-47.54"/>
<polygon fill="black" stroke="black" points="380.68,-47.62 377.18,-37.62 373.68,-47.62 380.68,-47.62"/>
</g>
<!-- assign k = [add [literal 1, ref k]] (r10) -->
<g id="node15" class="node">
<title>assign k = [add [literal 1, ref k]] (r10)</title>
<ellipse fill="#04ba72" stroke="black" cx="1150.18" cy="-522" rx="185.77" ry="18"/>
<text text-anchor="middle" x="1150.18" y="-518.3" font-family="Times,serif" font-size="14.00" fill="white">assign k = [add [literal 1, ref k]] (r10)</text>
</g>
<!-- ref k (rdi) -->
<g id="node16" class="node">
<title>ref k (rdi)</title>
<ellipse fill="#19a516" stroke="black" cx="1095.18" cy="-450" rx="55.49" ry="18"/>
<text text-anchor="middle" x="1095.18" y="-446.3" font-family="Times,serif" font-size="14.00" fill="white">ref k (rdi)</text>
</g>
<!-- assign k = [add [literal 1, ref k]] (r10)&#45;&gt;ref k (rdi) -->
<g id="edge13" class="edge">
<title>assign k = [add [literal 1, ref k]] (r10)&#45;&gt;ref k (rdi)</title>
<path fill="none" stroke="black" d="M1136.59,-503.7C1130.16,-495.52 1122.37,-485.6 1115.28,-476.58"/>
<polygon fill="black" stroke="black" points="1118.11,-474.51 1109.18,-468.81 1112.6,-478.84 1118.11,-474.51"/>
</g>
<!-- add [literal 1, ref k] (rsi) -->
<g id="node17" class="node">
<title>add [literal 1, ref k] (rsi)</title>
<ellipse fill="#f64b49" stroke="black" cx="1178.18" cy="-378" rx="123.48" ry="18"/>
<text text-anchor="middle" x="1178.18" y="-374.3" font-family="Times,serif" font-size="14.00" fill="white">add [literal 1, ref k] (rsi)</text>
</g>
<!-- ref k (rdi)&#45;&gt;add [literal 1, ref k] (rsi) -->
<g id="edge14" class="edge">
<title>ref k (rdi)&#45;&gt;add [literal 1, ref k] (rsi)</title>
<path fill="none" stroke="black" d="M1114.43,-432.76C1124.81,-424.01 1137.83,-413.03 1149.39,-403.28"/>
<polygon fill="black" stroke="black" points="1151.33,-406.22 1156.72,-397.1 1146.82,-400.87 1151.33,-406.22"/>
</g>
<!-- add [literal 1, ref k] (rsi)&#45;&gt;assign k = [add [literal 1, ref k]] (r10) -->
<g id="edge15" class="edge">
<title>add [literal 1, ref k] (rsi)&#45;&gt;assign k = [add [literal 1, ref k]] (r10)</title>
<path fill="none" stroke="black" d="M1174.81,-396.11C1170.09,-420.03 1161.47,-463.76 1155.78,-492.6"/>
<polygon fill="black" stroke="black" points="1152.41,-491.61 1153.91,-502.1 1159.28,-492.97 1152.41,-491.61"/>
</g>
<!-- literal 1 (rax) -->
<g id="node18" class="node">
<title>literal 1 (rax)</title>
<ellipse fill="#315bb6" stroke="black" cx="1278.18" cy="-450" rx="72.29" ry="18"/>
<text text-anchor="middle" x="1278.18" y="-446.3" font-family="Times,serif" font-size="14.00" fill="white">literal 1 (rax)</text>
</g>
<!-- literal 1 (rax)&#45;&gt;add [literal 1, ref k] (rsi) -->
<g id="edge16" class="edge">
<title>literal 1 (rax)&#45;&gt;add [literal 1, ref k] (rsi)</title>
<path fill="none" stroke="black" d="M1254.74,-432.59C1241.98,-423.66 1225.97,-412.45 1211.9,-402.6"/>
<polygon fill="black" stroke="black" points="1213.96,-399.78 1203.77,-396.91 1209.95,-405.51 1213.96,-399.78"/>
</g>
</g>
</svg>
