<?xml version="1.0" encoding="UTF-8" standalone="no"?>
<!DOCTYPE svg PUBLIC "-//W3C//DTD SVG 1.1//EN"
 "http://www.w3.org/Graphics/SVG/1.1/DTD/svg11.dtd">
<!-- Generated by graphviz version 7.1.0 (0)
 -->
<!-- Title: G Pages: 1 -->
<svg width="665pt" height="548pt"
 viewBox="0.00 0.00 664.73 548.00" xmlns="http://www.w3.org/2000/svg" xmlns:xlink="http://www.w3.org/1999/xlink">
<g id="graph0" class="graph" transform="scale(1 1) rotate(0) translate(4 544)">
<title>G</title>
<polygon fill="white" stroke="none" points="-4,4 -4,-544 660.73,-544 660.73,4 -4,4"/>
<!-- literal 6 (rdi) -->
<g id="node1" class="node">
<title>literal 6 (rdi)</title>
<ellipse fill="#19a516" stroke="black" cx="217.14" cy="-522" rx="70.39" ry="18"/>
<text text-anchor="middle" x="217.14" y="-518.3" font-family="Times,serif" font-size="14.00" fill="white">literal 6 (rdi)</text>
</g>
<!-- add [literal 7, literal 6] (rsi) -->
<g id="node2" class="node">
<title>add [literal 7, literal 6] (rsi)</title>
<ellipse fill="#f64b49" stroke="black" cx="217.14" cy="-450" rx="138.38" ry="18"/>
<text text-anchor="middle" x="217.14" y="-446.3" font-family="Times,serif" font-size="14.00" fill="white">add [literal 7, literal 6] (rsi)</text>
</g>
<!-- literal 6 (rdi)&#45;&gt;add [literal 7, literal 6] (rsi) -->
<g id="edge1" class="edge">
<title>literal 6 (rdi)&#45;&gt;add [literal 7, literal 6] (rsi)</title>
<path fill="none" stroke="black" d="M211.23,-503.7C210.48,-496.41 210.23,-487.73 210.5,-479.54"/>
<polygon fill="black" stroke="black" points="213.99,-479.82 211.15,-469.61 207,-479.36 213.99,-479.82"/>
</g>
<!-- add [literal 7, literal 6] (rsi)&#45;&gt;literal 6 (rdi) -->
<g id="edge2" class="edge">
<title>add [literal 7, literal 6] (rsi)&#45;&gt;literal 6 (rdi)</title>
<path fill="none" stroke="black" d="M223.04,-468.1C223.8,-475.37 224.05,-484.04 223.8,-492.24"/>
<polygon fill="black" stroke="black" points="220.31,-491.98 223.16,-502.19 227.29,-492.43 220.31,-491.98"/>
</g>
<!-- literal 7 (rax) -->
<g id="node3" class="node">
<title>literal 7 (rax)</title>
<ellipse fill="#315bb6" stroke="black" cx="72.14" cy="-378" rx="72.29" ry="18"/>
<text text-anchor="middle" x="72.14" y="-374.3" font-family="Times,serif" font-size="14.00" fill="white">literal 7 (rax)</text>
</g>
<!-- add [literal 7, literal 6] (rsi)&#45;&gt;literal 7 (rax) -->
<g id="edge3" class="edge">
<title>add [literal 7, literal 6] (rsi)&#45;&gt;literal 7 (rax)</title>
<path fill="none" stroke="black" d="M176.94,-432.41C155.82,-422.73 130.18,-410.41 109.5,-400.05"/>
<polygon fill="black" stroke="black" points="111.34,-397.06 100.84,-395.67 108.18,-403.31 111.34,-397.06"/>
</g>
<!-- assign a = [add [literal 7, literal 6]] (rax) -->
<g id="node4" class="node">
<title>assign a = [add [literal 7, literal 6]] (rax)</title>
<ellipse fill="#315bb6" stroke="black" cx="362.14" cy="-378" rx="200.36" ry="18"/>
<text text-anchor="middle" x="362.14" y="-374.3" font-family="Times,serif" font-size="14.00" fill="white">assign a = [add [literal 7, literal 6]] (rax)</text>
</g>
<!-- add [literal 7, literal 6] (rsi)&#45;&gt;assign a = [add [literal 7, literal 6]] (rax) -->
<g id="edge4" class="edge">
<title>add [literal 7, literal 6] (rsi)&#45;&gt;assign a = [add [literal 7, literal 6]] (rax)</title>
<path fill="none" stroke="black" d="M246.37,-432.05C264.82,-422.67 289.07,-410.89 310.64,-400.82"/>
<polygon fill="black" stroke="black" points="312,-404.05 319.6,-396.67 309.06,-397.7 312,-404.05"/>
</g>
<!-- literal 7 (rax)&#45;&gt;add [literal 7, literal 6] (rsi) -->
<g id="edge5" class="edge">
<title>literal 7 (rax)&#45;&gt;add [literal 7, literal 6] (rsi)</title>
<path fill="none" stroke="black" d="M108.62,-393.89C129.73,-403.5 156.21,-416.17 177.77,-426.94"/>
<polygon fill="black" stroke="black" points="176.06,-430 186.57,-431.37 179.21,-423.75 176.06,-430"/>
</g>
<!-- assign a = [add [literal 7, literal 6]] (rax)&#45;&gt;add [literal 7, literal 6] (rsi) -->
<g id="edge6" class="edge">
<title>assign a = [add [literal 7, literal 6]] (rax)&#45;&gt;add [literal 7, literal 6] (rsi)</title>
<path fill="none" stroke="black" d="M332.42,-396.2C313.76,-405.69 289.31,-417.55 267.69,-427.63"/>
<polygon fill="black" stroke="black" points="266.33,-424.4 258.72,-431.78 269.27,-430.75 266.33,-424.4"/>
</g>
<!-- ref a (r10) -->
<g id="node5" class="node">
<title>ref a (r10)</title>
<ellipse fill="#04ba72" stroke="black" cx="362.14" cy="-306" rx="57.69" ry="18"/>
<text text-anchor="middle" x="362.14" y="-302.3" font-family="Times,serif" font-size="14.00" fill="white">ref a (r10)</text>
</g>
<!-- assign a = [add [literal 7, literal 6]] (rax)&#45;&gt;ref a (r10) -->
<g id="edge7" class="edge">
<title>assign a = [add [literal 7, literal 6]] (rax)&#45;&gt;ref a (r10)</title>
<path fill="none" stroke="black" d="M356.23,-359.7C355.48,-352.41 355.23,-343.73 355.5,-335.54"/>
<polygon fill="black" stroke="black" points="358.99,-335.82 356.15,-325.61 352,-335.36 358.99,-335.82"/>
</g>
<!-- ref a (r10)&#45;&gt;assign a = [add [literal 7, literal 6]] (rax) -->
<g id="edge11" class="edge">
<title>ref a (r10)&#45;&gt;assign a = [add [literal 7, literal 6]] (rax)</title>
<path fill="none" stroke="black" d="M368.04,-324.1C368.8,-331.37 369.05,-340.04 368.8,-348.24"/>
<polygon fill="black" stroke="black" points="365.31,-347.98 368.16,-358.19 372.29,-348.43 365.31,-347.98"/>
</g>
<!-- add [ref b, ref a] (rsi) -->
<g id="node9" class="node">
<title>add [ref b, ref a] (rsi)</title>
<ellipse fill="#f64b49" stroke="black" cx="362.14" cy="-234" rx="108.58" ry="18"/>
<text text-anchor="middle" x="362.14" y="-230.3" font-family="Times,serif" font-size="14.00" fill="white">add [ref b, ref a] (rsi)</text>
</g>
<!-- ref a (r10)&#45;&gt;add [ref b, ref a] (rsi) -->
<g id="edge12" class="edge">
<title>ref a (r10)&#45;&gt;add [ref b, ref a] (rsi)</title>
<path fill="none" stroke="black" d="M356.23,-287.7C355.48,-280.41 355.23,-271.73 355.5,-263.54"/>
<polygon fill="black" stroke="black" points="358.99,-263.82 356.15,-253.61 352,-263.36 358.99,-263.82"/>
</g>
<!-- literal 8 (rdx) -->
<g id="node6" class="node">
<title>literal 8 (rdx)</title>
<ellipse fill="#8087a2" stroke="black" cx="240.14" cy="-18" rx="72.59" ry="18"/>
<text text-anchor="middle" x="240.14" y="-14.3" font-family="Times,serif" font-size="14.00" fill="white">literal 8 (rdx)</text>
</g>
<!-- assign b = [literal 8] (rcx) -->
<g id="node7" class="node">
<title>assign b = [literal 8] (rcx)</title>
<ellipse fill="#ea3d9e" stroke="black" cx="240.14" cy="-90" rx="130.78" ry="18"/>
<text text-anchor="middle" x="240.14" y="-86.3" font-family="Times,serif" font-size="14.00" fill="white">assign b = [literal 8] (rcx)</text>
</g>
<!-- literal 8 (rdx)&#45;&gt;assign b = [literal 8] (rcx) -->
<g id="edge8" class="edge">
<title>literal 8 (rdx)&#45;&gt;assign b = [literal 8] (rcx)</title>
<path fill="none" stroke="black" d="M246.04,-36.1C246.8,-43.37 247.05,-52.04 246.8,-60.24"/>
<polygon fill="black" stroke="black" points="243.31,-59.98 246.16,-70.19 250.29,-60.43 243.31,-59.98"/>
</g>
<!-- assign b = [literal 8] (rcx)&#45;&gt;literal 8 (rdx) -->
<g id="edge9" class="edge">
<title>assign b = [literal 8] (rcx)&#45;&gt;literal 8 (rdx)</title>
<path fill="none" stroke="black" d="M234.23,-71.7C233.48,-64.41 233.23,-55.73 233.5,-47.54"/>
<polygon fill="black" stroke="black" points="236.99,-47.82 234.15,-37.61 230,-47.36 236.99,-47.82"/>
</g>
<!-- ref b (rdi) -->
<g id="node8" class="node">
<title>ref b (rdi)</title>
<ellipse fill="#19a516" stroke="black" cx="240.14" cy="-162" rx="55.79" ry="18"/>
<text text-anchor="middle" x="240.14" y="-158.3" font-family="Times,serif" font-size="14.00" fill="white">ref b (rdi)</text>
</g>
<!-- assign b = [literal 8] (rcx)&#45;&gt;ref b (rdi) -->
<g id="edge10" class="edge">
<title>assign b = [literal 8] (rcx)&#45;&gt;ref b (rdi)</title>
<path fill="none" stroke="black" d="M246.04,-108.1C246.8,-115.37 247.05,-124.04 246.8,-132.24"/>
<polygon fill="black" stroke="black" points="243.31,-131.98 246.16,-142.19 250.29,-132.43 243.31,-131.98"/>
</g>
<!-- ref b (rdi)&#45;&gt;assign b = [literal 8] (rcx) -->
<g id="edge13" class="edge">
<title>ref b (rdi)&#45;&gt;assign b = [literal 8] (rcx)</title>
<path fill="none" stroke="black" d="M234.23,-143.7C233.48,-136.41 233.23,-127.73 233.5,-119.54"/>
<polygon fill="black" stroke="black" points="236.99,-119.82 234.15,-109.61 230,-119.36 236.99,-119.82"/>
</g>
<!-- ref b (rdi)&#45;&gt;add [ref b, ref a] (rsi) -->
<g id="edge14" class="edge">
<title>ref b (rdi)&#45;&gt;add [ref b, ref a] (rsi)</title>
<path fill="none" stroke="black" d="M270.87,-177.42C288.51,-186.85 310.57,-199.36 328.65,-210.12"/>
<polygon fill="black" stroke="black" points="326.82,-213.11 337.19,-215.27 330.44,-207.11 326.82,-213.11"/>
</g>
<!-- add [ref b, ref a] (rsi)&#45;&gt;ref a (r10) -->
<g id="edge15" class="edge">
<title>add [ref b, ref a] (rsi)&#45;&gt;ref a (r10)</title>
<path fill="none" stroke="black" d="M368.04,-252.1C368.8,-259.37 369.05,-268.04 368.8,-276.24"/>
<polygon fill="black" stroke="black" points="365.31,-275.98 368.16,-286.19 372.29,-276.43 365.31,-275.98"/>
</g>
<!-- add [ref b, ref a] (rsi)&#45;&gt;ref b (rdi) -->
<g id="edge16" class="edge">
<title>add [ref b, ref a] (rsi)&#45;&gt;ref b (rdi)</title>
<path fill="none" stroke="black" d="M327.72,-216.59C310.06,-207.06 288.79,-194.95 271.58,-184.65"/>
<polygon fill="black" stroke="black" points="273.63,-181.8 263.27,-179.61 270.01,-187.79 273.63,-181.8"/>
</g>
<!-- assign m = [add [ref b, ref a]] (rdi) -->
<g id="node10" class="node">
<title>assign m = [add [ref b, ref a]] (rdi)</title>
<ellipse fill="#19a516" stroke="black" cx="485.14" cy="-162" rx="171.67" ry="18"/>
<text text-anchor="middle" x="485.14" y="-158.3" font-family="Times,serif" font-size="14.00" fill="white">assign m = [add [ref b, ref a]] (rdi)</text>
</g>
<!-- add [ref b, ref a] (rsi)&#45;&gt;assign m = [add [ref b, ref a]] (rdi) -->
<g id="edge17" class="edge">
<title>add [ref b, ref a] (rsi)&#45;&gt;assign m = [add [ref b, ref a]] (rdi)</title>
<path fill="none" stroke="black" d="M386.04,-216.05C401.19,-206.88 421.16,-195.43 439.24,-185.51"/>
<polygon fill="black" stroke="black" points="440.88,-188.6 448,-180.75 437.54,-182.45 440.88,-188.6"/>
</g>
<!-- assign m = [add [ref b, ref a]] (rdi)&#45;&gt;add [ref b, ref a] (rsi) -->
<g id="edge18" class="edge">
<title>assign m = [add [ref b, ref a]] (rdi)&#45;&gt;add [ref b, ref a] (rsi)</title>
<path fill="none" stroke="black" d="M460.68,-180.29C445.29,-189.6 425.07,-201.18 406.91,-211.11"/>
<polygon fill="black" stroke="black" points="405.26,-208.03 398.13,-215.87 408.59,-214.18 405.26,-208.03"/>
</g>
<!-- ref m (rax) -->
<g id="node11" class="node">
<title>ref m (rax)</title>
<ellipse fill="#315bb6" stroke="black" cx="485.14" cy="-90" rx="60.39" ry="18"/>
<text text-anchor="middle" x="485.14" y="-86.3" font-family="Times,serif" font-size="14.00" fill="white">ref m (rax)</text>
</g>
<!-- assign m = [add [ref b, ref a]] (rdi)&#45;&gt;ref m (rax) -->
<g id="edge19" class="edge">
<title>assign m = [add [ref b, ref a]] (rdi)&#45;&gt;ref m (rax)</title>
<path fill="none" stroke="black" d="M479.23,-143.7C478.48,-136.41 478.23,-127.73 478.5,-119.54"/>
<polygon fill="black" stroke="black" points="481.99,-119.82 479.15,-109.61 475,-119.36 481.99,-119.82"/>
</g>
<!-- ref m (rax)&#45;&gt;assign m = [add [ref b, ref a]] (rdi) -->
<g id="edge20" class="edge">
<title>ref m (rax)&#45;&gt;assign m = [add [ref b, ref a]] (rdi)</title>
<path fill="none" stroke="black" d="M491.04,-108.1C491.8,-115.37 492.05,-124.04 491.8,-132.24"/>
<polygon fill="black" stroke="black" points="488.31,-131.98 491.16,-142.19 495.29,-132.43 488.31,-131.98"/>
</g>
<!-- print [ref m] (rdx) -->
<g id="node12" class="node">
<title>print [ref m] (rdx)</title>
<ellipse fill="#8087a2" stroke="black" cx="485.14" cy="-18" rx="93.68" ry="18"/>
<text text-anchor="middle" x="485.14" y="-14.3" font-family="Times,serif" font-size="14.00" fill="white">print [ref m] (rdx)</text>
</g>
<!-- ref m (rax)&#45;&gt;print [ref m] (rdx) -->
<g id="edge21" class="edge">
<title>ref m (rax)&#45;&gt;print [ref m] (rdx)</title>
<path fill="none" stroke="black" d="M479.23,-71.7C478.48,-64.41 478.23,-55.73 478.5,-47.54"/>
<polygon fill="black" stroke="black" points="481.99,-47.82 479.15,-37.61 475,-47.36 481.99,-47.82"/>
</g>
<!-- print [ref m] (rdx)&#45;&gt;ref m (rax) -->
<g id="edge22" class="edge">
<title>print [ref m] (rdx)&#45;&gt;ref m (rax)</title>
<path fill="none" stroke="black" d="M491.04,-36.1C491.8,-43.37 492.05,-52.04 491.8,-60.24"/>
<polygon fill="black" stroke="black" points="488.31,-59.98 491.16,-70.19 495.29,-60.43 488.31,-59.98"/>
</g>
</g>
</svg>
