<?xml version="1.0" encoding="UTF-8" standalone="no"?>
<!DOCTYPE svg PUBLIC "-//W3C//DTD SVG 1.1//EN"
 "http://www.w3.org/Graphics/SVG/1.1/DTD/svg11.dtd">
<!-- Generated by graphviz version 7.1.0 (0)
 -->
<!-- Title: G Pages: 1 -->
<svg width="668pt" height="548pt"
 viewBox="0.00 0.00 668.03 548.00" xmlns="http://www.w3.org/2000/svg" xmlns:xlink="http://www.w3.org/1999/xlink">
<g id="graph0" class="graph" transform="scale(1 1) rotate(0) translate(4 544)">
<title>G</title>
<polygon fill="white" stroke="none" points="-4,4 -4,-544 664.03,-544 664.03,4 -4,4"/>
<!-- literal 6 (rdi) -->
<g id="node1" class="node">
<title>literal 6 (rdi)</title>
<ellipse fill="#19a516" stroke="black" cx="217.14" cy="-522" rx="70.39" ry="18"/>
<text text-anchor="middle" x="217.14" y="-518.3" font-family="Times,serif" font-size="14.00">literal 6 (rdi)</text>
</g>
<!-- add [literal 6, literal 7] (rsi) -->
<g id="node2" class="node">
<title>add [literal 6, literal 7] (rsi)</title>
<ellipse fill="#f64b49" stroke="black" cx="217.14" cy="-450" rx="138.38" ry="18"/>
<text text-anchor="middle" x="217.14" y="-446.3" font-family="Times,serif" font-size="14.00">add [literal 6, literal 7] (rsi)</text>
</g>
<!-- literal 6 (rdi)&#45;&gt;add [literal 6, literal 7] (rsi) -->
<g id="edge1" class="edge">
<title>literal 6 (rdi)&#45;&gt;add [literal 6, literal 7] (rsi)</title>
<path fill="none" stroke="black" d="M211.23,-503.7C210.48,-496.41 210.23,-487.73 210.5,-479.54"/>
<polygon fill="black" stroke="black" points="213.99,-479.82 211.15,-469.61 207,-479.36 213.99,-479.82"/>
</g>
<!-- add [literal 6, literal 7] (rsi)&#45;&gt;literal 6 (rdi) -->
<g id="edge2" class="edge">
<title>add [literal 6, literal 7] (rsi)&#45;&gt;literal 6 (rdi)</title>
<path fill="none" stroke="black" d="M223.04,-468.1C223.8,-475.37 224.05,-484.04 223.8,-492.24"/>
<polygon fill="black" stroke="black" points="220.31,-491.98 223.16,-502.19 227.29,-492.43 220.31,-491.98"/>
</g>
<!-- literal 7 (rax) -->
<g id="node3" class="node">
<title>literal 7 (rax)</title>
<ellipse fill="#315bb6" stroke="black" cx="72.14" cy="-378" rx="72.29" ry="18"/>
<text text-anchor="middle" x="72.14" y="-374.3" font-family="Times,serif" font-size="14.00">literal 7 (rax)</text>
</g>
<!-- add [literal 6, literal 7] (rsi)&#45;&gt;literal 7 (rax) -->
<g id="edge3" class="edge">
<title>add [literal 6, literal 7] (rsi)&#45;&gt;literal 7 (rax)</title>
<path fill="none" stroke="black" d="M176.94,-432.41C155.82,-422.73 130.18,-410.41 109.5,-400.05"/>
<polygon fill="black" stroke="black" points="111.34,-397.06 100.84,-395.67 108.18,-403.31 111.34,-397.06"/>
</g>
<!-- assign a = [add [literal 6, literal 7]] (rdx) -->
<g id="node4" class="node">
<title>assign a = [add [literal 6, literal 7]] (rdx)</title>
<ellipse fill="#afe838" stroke="black" cx="362.14" cy="-378" rx="200.36" ry="18"/>
<text text-anchor="middle" x="362.14" y="-374.3" font-family="Times,serif" font-size="14.00">assign a = [add [literal 6, literal 7]] (rdx)</text>
</g>
<!-- add [literal 6, literal 7] (rsi)&#45;&gt;assign a = [add [literal 6, literal 7]] (rdx) -->
<g id="edge4" class="edge">
<title>add [literal 6, literal 7] (rsi)&#45;&gt;assign a = [add [literal 6, literal 7]] (rdx)</title>
<path fill="none" stroke="black" d="M246.37,-432.05C264.82,-422.67 289.07,-410.89 310.64,-400.82"/>
<polygon fill="black" stroke="black" points="312,-404.05 319.6,-396.67 309.06,-397.7 312,-404.05"/>
</g>
<!-- literal 7 (rax)&#45;&gt;add [literal 6, literal 7] (rsi) -->
<g id="edge5" class="edge">
<title>literal 7 (rax)&#45;&gt;add [literal 6, literal 7] (rsi)</title>
<path fill="none" stroke="black" d="M108.62,-393.89C129.73,-403.5 156.21,-416.17 177.77,-426.94"/>
<polygon fill="black" stroke="black" points="176.06,-430 186.57,-431.37 179.21,-423.75 176.06,-430"/>
</g>
<!-- assign a = [add [literal 6, literal 7]] (rdx)&#45;&gt;add [literal 6, literal 7] (rsi) -->
<g id="edge6" class="edge">
<title>assign a = [add [literal 6, literal 7]] (rdx)&#45;&gt;add [literal 6, literal 7] (rsi)</title>
<path fill="none" stroke="black" d="M332.42,-396.2C313.76,-405.69 289.31,-417.55 267.69,-427.63"/>
<polygon fill="black" stroke="black" points="266.33,-424.4 258.72,-431.78 269.27,-430.75 266.33,-424.4"/>
</g>
<!-- ref a (rsi) -->
<g id="node5" class="node">
<title>ref a (rsi)</title>
<ellipse fill="#f64b49" stroke="black" cx="362.14" cy="-306" rx="53.89" ry="18"/>
<text text-anchor="middle" x="362.14" y="-302.3" font-family="Times,serif" font-size="14.00">ref a (rsi)</text>
</g>
<!-- assign a = [add [literal 6, literal 7]] (rdx)&#45;&gt;ref a (rsi) -->
<g id="edge7" class="edge">
<title>assign a = [add [literal 6, literal 7]] (rdx)&#45;&gt;ref a (rsi)</title>
<path fill="none" stroke="black" d="M356.23,-359.7C355.48,-352.41 355.23,-343.73 355.5,-335.54"/>
<polygon fill="black" stroke="black" points="358.99,-335.82 356.15,-325.61 352,-335.36 358.99,-335.82"/>
</g>
<!-- ref a (rsi)&#45;&gt;assign a = [add [literal 6, literal 7]] (rdx) -->
<g id="edge11" class="edge">
<title>ref a (rsi)&#45;&gt;assign a = [add [literal 6, literal 7]] (rdx)</title>
<path fill="none" stroke="black" d="M368.04,-324.1C368.8,-331.37 369.05,-340.04 368.8,-348.24"/>
<polygon fill="black" stroke="black" points="365.31,-347.98 368.16,-358.19 372.29,-348.43 365.31,-347.98"/>
</g>
<!-- add [ref b, ref a] (rdx) -->
<g id="node9" class="node">
<title>add [ref b, ref a] (rdx)</title>
<ellipse fill="#afe838" stroke="black" cx="362.14" cy="-234" rx="112.38" ry="18"/>
<text text-anchor="middle" x="362.14" y="-230.3" font-family="Times,serif" font-size="14.00">add [ref b, ref a] (rdx)</text>
</g>
<!-- ref a (rsi)&#45;&gt;add [ref b, ref a] (rdx) -->
<g id="edge12" class="edge">
<title>ref a (rsi)&#45;&gt;add [ref b, ref a] (rdx)</title>
<path fill="none" stroke="black" d="M356.23,-287.7C355.48,-280.41 355.23,-271.73 355.5,-263.54"/>
<polygon fill="black" stroke="black" points="358.99,-263.82 356.15,-253.61 352,-263.36 358.99,-263.82"/>
</g>
<!-- literal 8 (rcx) -->
<g id="node6" class="node">
<title>literal 8 (rcx)</title>
<ellipse fill="#ea3d9e" stroke="black" cx="238.14" cy="-18" rx="71.49" ry="18"/>
<text text-anchor="middle" x="238.14" y="-14.3" font-family="Times,serif" font-size="14.00">literal 8 (rcx)</text>
</g>
<!-- assign b = [literal 8] (rdi) -->
<g id="node7" class="node">
<title>assign b = [literal 8] (rdi)</title>
<ellipse fill="#19a516" stroke="black" cx="238.14" cy="-90" rx="129.18" ry="18"/>
<text text-anchor="middle" x="238.14" y="-86.3" font-family="Times,serif" font-size="14.00">assign b = [literal 8] (rdi)</text>
</g>
<!-- literal 8 (rcx)&#45;&gt;assign b = [literal 8] (rdi) -->
<g id="edge8" class="edge">
<title>literal 8 (rcx)&#45;&gt;assign b = [literal 8] (rdi)</title>
<path fill="none" stroke="black" d="M244.04,-36.1C244.8,-43.37 245.05,-52.04 244.8,-60.24"/>
<polygon fill="black" stroke="black" points="241.31,-59.98 244.16,-70.19 248.29,-60.43 241.31,-59.98"/>
</g>
<!-- assign b = [literal 8] (rdi)&#45;&gt;literal 8 (rcx) -->
<g id="edge9" class="edge">
<title>assign b = [literal 8] (rdi)&#45;&gt;literal 8 (rcx)</title>
<path fill="none" stroke="black" d="M232.23,-71.7C231.48,-64.41 231.23,-55.73 231.5,-47.54"/>
<polygon fill="black" stroke="black" points="234.99,-47.82 232.15,-37.61 228,-47.36 234.99,-47.82"/>
</g>
<!-- ref b (rax) -->
<g id="node8" class="node">
<title>ref b (rax)</title>
<ellipse fill="#315bb6" stroke="black" cx="238.14" cy="-162" rx="57.69" ry="18"/>
<text text-anchor="middle" x="238.14" y="-158.3" font-family="Times,serif" font-size="14.00">ref b (rax)</text>
</g>
<!-- assign b = [literal 8] (rdi)&#45;&gt;ref b (rax) -->
<g id="edge10" class="edge">
<title>assign b = [literal 8] (rdi)&#45;&gt;ref b (rax)</title>
<path fill="none" stroke="black" d="M244.04,-108.1C244.8,-115.37 245.05,-124.04 244.8,-132.24"/>
<polygon fill="black" stroke="black" points="241.31,-131.98 244.16,-142.19 248.29,-132.43 241.31,-131.98"/>
</g>
<!-- ref b (rax)&#45;&gt;assign b = [literal 8] (rdi) -->
<g id="edge13" class="edge">
<title>ref b (rax)&#45;&gt;assign b = [literal 8] (rdi)</title>
<path fill="none" stroke="black" d="M232.23,-143.7C231.48,-136.41 231.23,-127.73 231.5,-119.54"/>
<polygon fill="black" stroke="black" points="234.99,-119.82 232.15,-109.61 228,-119.36 234.99,-119.82"/>
</g>
<!-- ref b (rax)&#45;&gt;add [ref b, ref a] (rdx) -->
<g id="edge14" class="edge">
<title>ref b (rax)&#45;&gt;add [ref b, ref a] (rdx)</title>
<path fill="none" stroke="black" d="M269.28,-177.42C287.27,-186.89 309.82,-199.47 328.25,-210.27"/>
<polygon fill="black" stroke="black" points="326.32,-213.19 336.7,-215.28 329.89,-207.17 326.32,-213.19"/>
</g>
<!-- add [ref b, ref a] (rdx)&#45;&gt;ref a (rsi) -->
<g id="edge15" class="edge">
<title>add [ref b, ref a] (rdx)&#45;&gt;ref a (rsi)</title>
<path fill="none" stroke="black" d="M368.04,-252.1C368.8,-259.37 369.05,-268.04 368.8,-276.24"/>
<polygon fill="black" stroke="black" points="365.31,-275.98 368.16,-286.19 372.29,-276.43 365.31,-275.98"/>
</g>
<!-- add [ref b, ref a] (rdx)&#45;&gt;ref b (rax) -->
<g id="edge16" class="edge">
<title>add [ref b, ref a] (rdx)&#45;&gt;ref b (rax)</title>
<path fill="none" stroke="black" d="M327.25,-216.59C309.32,-207.06 287.71,-194.95 270.2,-184.65"/>
<polygon fill="black" stroke="black" points="272.11,-181.71 261.73,-179.6 268.53,-187.73 272.11,-181.71"/>
</g>
<!-- assign m = [add [ref b, ref a]] (rcx) -->
<g id="node10" class="node">
<title>assign m = [add [ref b, ref a]] (rcx)</title>
<ellipse fill="#ea3d9e" stroke="black" cx="487.14" cy="-162" rx="172.77" ry="18"/>
<text text-anchor="middle" x="487.14" y="-158.3" font-family="Times,serif" font-size="14.00">assign m = [add [ref b, ref a]] (rcx)</text>
</g>
<!-- add [ref b, ref a] (rdx)&#45;&gt;assign m = [add [ref b, ref a]] (rcx) -->
<g id="edge17" class="edge">
<title>add [ref b, ref a] (rdx)&#45;&gt;assign m = [add [ref b, ref a]] (rcx)</title>
<path fill="none" stroke="black" d="M386.52,-216.05C402.01,-206.84 422.42,-195.32 440.85,-185.37"/>
<polygon fill="black" stroke="black" points="442.34,-188.55 449.51,-180.75 439.04,-182.37 442.34,-188.55"/>
</g>
<!-- assign m = [add [ref b, ref a]] (rcx)&#45;&gt;add [ref b, ref a] (rdx) -->
<g id="edge18" class="edge">
<title>assign m = [add [ref b, ref a]] (rcx)&#45;&gt;add [ref b, ref a] (rdx)</title>
<path fill="none" stroke="black" d="M462.19,-180.29C446.45,-189.64 425.79,-201.29 407.28,-211.25"/>
<polygon fill="black" stroke="black" points="405.78,-208.08 398.61,-215.88 409.08,-214.26 405.78,-208.08"/>
</g>
<!-- ref m (rdi) -->
<g id="node11" class="node">
<title>ref m (rdi)</title>
<ellipse fill="#19a516" stroke="black" cx="487.14" cy="-90" rx="58.49" ry="18"/>
<text text-anchor="middle" x="487.14" y="-86.3" font-family="Times,serif" font-size="14.00">ref m (rdi)</text>
</g>
<!-- assign m = [add [ref b, ref a]] (rcx)&#45;&gt;ref m (rdi) -->
<g id="edge19" class="edge">
<title>assign m = [add [ref b, ref a]] (rcx)&#45;&gt;ref m (rdi)</title>
<path fill="none" stroke="black" d="M481.23,-143.7C480.48,-136.41 480.23,-127.73 480.5,-119.54"/>
<polygon fill="black" stroke="black" points="483.99,-119.82 481.15,-109.61 477,-119.36 483.99,-119.82"/>
</g>
<!-- ref m (rdi)&#45;&gt;assign m = [add [ref b, ref a]] (rcx) -->
<g id="edge20" class="edge">
<title>ref m (rdi)&#45;&gt;assign m = [add [ref b, ref a]] (rcx)</title>
<path fill="none" stroke="black" d="M493.04,-108.1C493.8,-115.37 494.05,-124.04 493.8,-132.24"/>
<polygon fill="black" stroke="black" points="490.31,-131.98 493.16,-142.19 497.29,-132.43 490.31,-131.98"/>
</g>
<!-- print [ref m] (rsi) -->
<g id="node12" class="node">
<title>print [ref m] (rsi)</title>
<ellipse fill="#f64b49" stroke="black" cx="487.14" cy="-18" rx="90.18" ry="18"/>
<text text-anchor="middle" x="487.14" y="-14.3" font-family="Times,serif" font-size="14.00">print [ref m] (rsi)</text>
</g>
<!-- ref m (rdi)&#45;&gt;print [ref m] (rsi) -->
<g id="edge21" class="edge">
<title>ref m (rdi)&#45;&gt;print [ref m] (rsi)</title>
<path fill="none" stroke="black" d="M481.23,-71.7C480.48,-64.41 480.23,-55.73 480.5,-47.54"/>
<polygon fill="black" stroke="black" points="483.99,-47.82 481.15,-37.61 477,-47.36 483.99,-47.82"/>
</g>
<!-- print [ref m] (rsi)&#45;&gt;ref m (rdi) -->
<g id="edge22" class="edge">
<title>print [ref m] (rsi)&#45;&gt;ref m (rdi)</title>
<path fill="none" stroke="black" d="M493.04,-36.1C493.8,-43.37 494.05,-52.04 493.8,-60.24"/>
<polygon fill="black" stroke="black" points="490.31,-59.98 493.16,-70.19 497.29,-60.43 490.31,-59.98"/>
</g>
</g>
</svg>
